<svg id="Layer_1" data-name="Layer 1" xmlns="http://www.w3.org/2000/svg" viewBox="0 0 422.65 418.32"><defs><style>.cls-1{fill:#7ac943;}.cls-2{fill:#ff931e;}.cls-3{fill:#ff1d25;}.cls-4{font-size:20px;font-family:Arial-BoldMT, Arial;font-weight:700;}.cls-5{letter-spacing:-0.04em;}.cls-6{font-size:15px;fill:#626a6e;font-family:ArialMT, Arial;}.cls-7{letter-spacing:-0.09em;}.cls-8{stroke:#fff;stroke-miterlimit:10;stroke-width:2px;}</style></defs><title>Amberslopechart</title><path class="cls-1" d="M228,110.16V138H121.5c-6,0-13.12-5.62-3.23-10.55,3.29-1.64,8.48-3.2,16.23-4.45Z" transform="translate(-113.35 -25.68)"/><polygon class="cls-2" points="277.15 63.87 277.15 112.32 127.15 112.32 127.15 84.48 277.15 63.87"/><path class="cls-3" d="M536,85v41a12,12,0,0,1-12,12H403.5V89.55L524,73A12,12,0,0,1,536,85Z" transform="translate(-113.35 -25.68)"/><text class="cls-4" transform="translate(5.73 17.16)"><tspan class="cls-5">A</tspan><tspan x="13.7" y="0">verage you are spending on food</tspan></text><path class="cls-1" d="M228,264.16V292H121.5c-6,0-13.12-5.62-3.23-10.55,3.29-1.64,8.48-3.2,16.23-4.45Z" transform="translate(-113.35 -25.68)"/><polygon class="cls-2" points="277.15 217.87 277.15 266.32 127.15 266.32 127.15 238.48 277.15 217.87"/><path class="cls-3" d="M536,239v41a12,12,0,0,1-12,12H403.5V243.55L524,227A12,12,0,0,1,536,239Z" transform="translate(-113.35 -25.68)"/><text class="cls-4" transform="translate(5.73 176.16)"><tspan class="cls-5">A</tspan><tspan x="13.7" y="0">verage you are spending on transport</tspan></text><text class="cls-6" transform="translate(5.73 200.58)"><tspan class="cls-7">Y</tspan><tspan x="8.63" y="0">ou are spending around the Universal Credit average</tspan></text><rect class="cls-8" x="195.65" y="220.32" width="5" height="47"/><rect class="cls-8" x="195.65" y="66.32" width="5" height="47"/><path class="cls-1" d="M228,415.16V443H121.5c-6,0-13.12-5.62-3.23-10.55,3.29-1.64,8.48-3.2,16.23-4.45Z" transform="translate(-113.35 -25.68)"/><polygon class="cls-2" points="277.15 368.87 277.15 417.32 127.15 417.32 127.15 389.48 277.15 368.87"/><path class="cls-3" d="M536,390v41a12,12,0,0,1-12,12H403.5V394.55L524,378A12,12,0,0,1,536,390Z" transform="translate(-113.35 -25.68)"/><text class="cls-4" transform="translate(5.73 319.16)"><tspan class="cls-5">A</tspan><tspan x="13.7" y="0">verage you are spending on clothes</tspan></text><text class="cls-6" transform="translate(5.73 343.58)"><tspan class="cls-7">Y</tspan><tspan x="8.63" y="0">ou are spending over the Universal Credit average</tspan></text><text class="cls-6" transform="translate(5.73 40.58)"><tspan class="cls-7">Y</tspan><tspan x="8.63" y="0" xml:space="preserve">ou are spending around  the Universal Credit average</tspan></text><rect class="cls-8" x="299.65" y="360.32" width="5" height="57"/></svg>