<svg id="Layer_1" data-name="Layer 1" xmlns="http://www.w3.org/2000/svg" viewBox="0 0 319.43 400.93"><defs><style>.cls-1{font-size:20px;font-family:Arial-BoldMT, Arial;font-weight:700;}.cls-2{fill:#5c9732;}.cls-3{fill:#7ac943;}.cls-4{fill:#ff931e;}</style></defs><title>Bars chart</title><text class="cls-1" transform="translate(0 31.37)">Q1</text><text class="cls-1" transform="translate(0 100.21)">Q2</text><text class="cls-1" transform="translate(0 172.27)">Q3</text><text class="cls-1" transform="translate(0 241.41)">Q4</text><text class="cls-1" transform="translate(0 312.08)">Q5</text><text class="cls-1" transform="translate(0 380.08)">Q6</text><rect class="cls-2" x="34.43" width="35" height="51"/><rect class="cls-3" x="69.43" width="72.25" height="51"/><rect class="cls-4" x="141.68" width="16.75" height="51"/><rect class="cls-2" x="34.43" y="68.84" width="48" height="51"/><rect class="cls-3" x="82.43" y="68.84" width="50.75" height="51"/><rect class="cls-4" x="133.18" y="68.84" width="37.25" height="51"/><rect class="cls-2" x="34.43" y="140.9" width="65" height="51"/><rect class="cls-3" x="99.43" y="140.9" width="58.25" height="51"/><rect class="cls-4" x="157.68" y="140.9" width="50.75" height="51"/><rect class="cls-2" x="34.43" y="210.04" width="71" height="51"/><rect class="cls-3" x="99.43" y="210.04" width="84" height="51"/><rect class="cls-4" x="183.43" y="210.04" width="51" height="51"/><rect class="cls-2" x="34.43" y="280.71" width="94" height="51"/><rect class="cls-3" x="128.43" y="280.71" width="76" height="51"/><rect class="cls-4" x="203.43" y="280.71" width="61" height="51"/><rect class="cls-2" x="34.43" y="349.93" width="94" height="51"/><rect class="cls-3" x="128.43" y="349.93" width="105" height="51"/><rect class="cls-4" x="233.43" y="349.93" width="86" height="51"/></svg>