<svg id="Layer_1" data-name="Layer 1" xmlns="http://www.w3.org/2000/svg" viewBox="0 0 443 338.9"><defs><style>.cls-1,.cls-7{fill:#7ac943;}.cls-2,.cls-9{fill:#ff1d25;}.cls-11,.cls-3{fill:#ff931e;}.cls-4,.cls-5,.cls-6{fill:none;stroke-miterlimit:10;stroke-width:2px;}.cls-4{stroke:#7ac943;}.cls-5{stroke:#ff1d25;}.cls-6{stroke:#ff931e;}.cls-11,.cls-7,.cls-9{font-size:28px;font-family:ArialMT, Arial;}.cls-8{font-size:22px;}.cls-10{letter-spacing:-0.04em;}</style></defs><title>Pie chart 2</title><path class="cls-1" d="M341.5,104V366a131,131,0,0,1,0-262Z" transform="translate(-111 -38.02)"/><path class="cls-2" d="M450.4,161.42,341.5,235.5V104h.5A130.86,130.86,0,0,1,450.4,161.42Z" transform="translate(-111 -38.02)"/><path class="cls-3" d="M473,235A131,131,0,0,1,342,366h-.5V235.5l108.9-74.08A130.41,130.41,0,0,1,473,235Z" transform="translate(-111 -38.02)"/><polyline class="cls-4" points="135.45 111.03 98.71 74.29 0 74.29"/><polyline class="cls-5" points="299.55 85.9 338.46 56.48 443 56.48"/><polyline class="cls-6" points="299.55 308.48 328.97 337.9 408 337.9"/><text class="cls-7" transform="translate(0 39.03)">50%<tspan class="cls-8"><tspan x="0" y="26.4">Rent </tspan></tspan></text><text class="cls-9" transform="translate(339 24.03)">20%<tspan class="cls-8"><tspan class="cls-10" x="0" y="26.4">T</tspan><tspan x="12.62" y="26.4">ransport</tspan></tspan></text><text class="cls-11" transform="translate(339 302.03)">30%<tspan class="cls-8"><tspan x="0" y="26.4">Food</tspan></tspan></text></svg>