<svg id="Layer_1" data-name="Layer 1" xmlns="http://www.w3.org/2000/svg" viewBox="0 0 485.9 395.19"><defs><style>.cls-1,.cls-2,.cls-3,.cls-4{fill:none;stroke-miterlimit:10;}.cls-1{stroke:#00a339;}.cls-2{stroke:#006837;}.cls-3{stroke:#e9492c;}.cls-4{stroke:#f15a24;}.cls-15,.cls-5{fill:#00a339;}.cls-14,.cls-6{fill:#006837;}.cls-16,.cls-7{fill:#f15a24;}.cls-12,.cls-8{fill:#e9492c;}.cls-9{fill:#ef0f20;}.cls-10,.cls-12,.cls-14,.cls-15,.cls-16{font-size:28px;}.cls-10{fill:#fff;font-family:Arial-BoldMT, Arial;font-weight:700;}.cls-11{font-size:22px;}.cls-12,.cls-14,.cls-15,.cls-16{font-family:ArialMT, Arial;}.cls-13{letter-spacing:-0.04em;}</style></defs><title>Piechart</title><polyline class="cls-1" points="326.55 237.06 290.15 57.86 1.46 57.86"/><polyline class="cls-2" points="326.55 236.26 199.15 122.86 1.46 122.86"/><polyline class="cls-3" points="326.55 237.06 176.75 358.86 1.46 358.86"/><polyline class="cls-4" points="1.46 211.86 158.55 211.86 326.55 237.06"/><g id="_YOUR_DATA_HERE_Pie_Graph" data-name="[YOUR DATA HERE] Pie Graph"><path class="cls-5" d="M404.21,279.77,355.13,128.7a151,151,0,0,1,49.08-7.77Z" transform="translate(-77.16 -43.42)"/><path class="cls-6" d="M404.21,279.77,275.7,186.4c20.63-28.39,46.05-46.86,79.43-57.7Z" transform="translate(-77.16 -43.42)"/><path class="cls-7" d="M404.21,279.77H245.37c0-35.09,9.71-65,30.33-93.37Z" transform="translate(-77.16 -43.42)"/><path class="cls-8" d="M404.21,279.77,355.13,430.84C288.38,409.15,245.37,350,245.37,279.77Z" transform="translate(-77.16 -43.42)"/><path class="cls-9" d="M404.21,279.77V120.93a158.84,158.84,0,1,1,0,317.68,151,151,0,0,1-49.08-7.77Z" transform="translate(-77.16 -43.42)"/></g><text class="cls-10" transform="translate(372.4 212.83)">55%<tspan class="cls-11"><tspan x="0" y="26.4">Housing</tspan></tspan></text><text class="cls-12" transform="translate(0 322.03)">20%<tspan class="cls-11"><tspan class="cls-13" x="0" y="26.4">T</tspan><tspan x="12.62" y="26.4">ransport</tspan></tspan></text><text class="cls-14" transform="translate(0 91.03)">10%<tspan class="cls-11"><tspan x="0" y="26.4">Utilities </tspan></tspan></text><text class="cls-15" transform="translate(0 24.03)">5%<tspan class="cls-11"><tspan x="0" y="26.4">Food</tspan><tspan class="cls-6" x="50.14" y="26.4"> </tspan></tspan></text><text class="cls-16" transform="translate(0 179.23)">10%<tspan class="cls-11"><tspan x="0" y="26.4">Luxuries</tspan></tspan></text></svg>