<svg id="Layer_1" data-name="Layer 1" xmlns="http://www.w3.org/2000/svg" viewBox="0 0 222.5 233.3"><defs><style>.cls-1{fill:none;stroke:#006837;stroke-miterlimit:10;stroke-width:5px;}.cls-10,.cls-2,.cls-8{font-size:12px;}.cls-2{font-family:MyriadPro-Regular, Myriad Pro;}.cls-3{letter-spacing:-0.08em;}.cls-4{letter-spacing:-0.01em;}.cls-5{letter-spacing:-0.01em;}.cls-6{letter-spacing:0em;}.cls-7{font-size:10px;}.cls-10,.cls-7{font-family:ArialMT, Arial;}.cls-9{font-size:28px;font-family:Arial-BoldMT, Arial;font-weight:700;}</style></defs><title>Saved</title><path d="M305,328h0Z" transform="translate(-191.56 -94.71)"/><path d="M302.18,99.21h.38c.69,0,1.28,0,1.81,0h.1a106.45,106.45,0,0,1,103.9,100.19c.12,2,.19,4.11.19,6.26a109.11,109.11,0,0,1-.79,13A106.51,106.51,0,1,1,302.06,99.21h.12m-.12-4a110.56,110.56,0,1,0,110.5,110.5q0-3.27-.19-6.5A110.47,110.47,0,0,0,304.56,95.26c-.66,0-1.33,0-2,0Z" transform="translate(-191.56 -94.71)"/><path class="cls-1" d="M411.56,208.21a110.94,110.94,0,0,0-111-111" transform="translate(-191.56 -94.71)"/><text class="cls-2" transform="translate(53.72 113.33)"><tspan class="cls-3">Y</tspan><tspan x="5.58" y="0">ou s</tspan><tspan class="cls-4" x="26.08" y="0">a</tspan><tspan class="cls-5" x="31.76" y="0">v</tspan><tspan x="37.42" y="0">ed this mo</tspan><tspan class="cls-6" x="90.07" y="0">n</tspan><tspan x="96.68" y="0">th </tspan></text><text class="cls-7" transform="translate(31.5 124.41)">If you remian spending the same in<tspan class="cls-8" x="155.64" y="0" xml:space="preserve">   </tspan></text><text class="cls-9" transform="translate(87.14 92.45)">£20</text><text class="cls-10" transform="translate(65.63 159.24)">6 Months = £120</text><text class="cls-10" transform="translate(68.97 145.24)">3 Months = £60</text><text class="cls-10" transform="translate(62.3 173.24)">12 Months = £240</text></svg>