<svg id="Layer_1" data-name="Layer 1" xmlns="http://www.w3.org/2000/svg" viewBox="0 0 301 301"><defs><style>.cls-1{fill:#006837;}.cls-2{fill:#ff1d25;}.cls-3{fill:#ff931e;}.cls-4{fill:#ff0;}</style></defs><title>expenditure</title><path class="cls-1" d="M286.5,417a151.15,151.15,0,0,1-33.7-3.8L260.53,378a114,114,0,0,0,94.52-202.11l27.5-24.13A149.67,149.67,0,0,1,436.5,267C436.5,349.71,369.21,417,286.5,417Z" transform="translate(-136 -116.5)"/><path d="M382.56,152.44A149.5,149.5,0,0,1,286.5,416.5a151.12,151.12,0,0,1-33.1-3.67l7.51-34.21A114.53,114.53,0,0,0,401,267a113.27,113.27,0,0,0-12.57-52.21,115.47,115.47,0,0,0-32.59-38.91l26.72-23.44m0-1.32-28.28,24.82a113.53,113.53,0,0,1-94.11,201.48l-7.94,36.16A150.53,150.53,0,0,0,382.54,151.12Z" transform="translate(-136 -116.5)"/><path class="cls-2" d="M354.23,175.3A113,113,0,0,0,287,153V117a150.22,150.22,0,0,1,94.77,34.13Z" transform="translate(-136 -116.5)"/><path d="M287.5,117.5A149,149,0,0,1,381,151.14l-26.79,23.52A113.54,113.54,0,0,0,287.5,152.5v-35m-1-1v37a113,113,0,0,1,67.76,22.44l28.28-24.82a149.9,149.9,0,0,0-96-34.62Z" transform="translate(-136 -116.5)"/><path class="cls-3" d="M138.93,240A149.7,149.7,0,0,1,286,117v36a112.73,112.73,0,0,0-70.61,24.9A114.52,114.52,0,0,0,175.73,240Z" transform="translate(-136 -116.5)"/><path d="M285.5,117.5v35a113.2,113.2,0,0,0-70.42,25,115,115,0,0,0-39.75,62h-35.8a149.55,149.55,0,0,1,146-122m1-1a150.54,150.54,0,0,0-148.17,124h37.79a113.54,113.54,0,0,1,110.38-87v-37Z" transform="translate(-136 -116.5)"/><path class="cls-4" d="M251.83,413A150.18,150.18,0,0,1,138.75,241h36.74a114,114,0,0,0,84.07,136.79Z" transform="translate(-136 -116.5)"/><path d="M174.86,241.5A114.64,114.64,0,0,0,172,267a113.23,113.23,0,0,0,25.05,71.48A115,115,0,0,0,259,378.16l-7.51,34.21A149.68,149.68,0,0,1,139.17,241.5h35.69m1.26-1H138.33A150.68,150.68,0,0,0,252.21,413.58l7.94-36.16a113.6,113.6,0,0,1-84-136.92Z" transform="translate(-136 -116.5)"/></svg>