<svg id="Layer_1" data-name="Layer 1" xmlns="http://www.w3.org/2000/svg" viewBox="0 0 566.12 391.49"><defs><style>.cls-1,.cls-10,.cls-11,.cls-7,.cls-8,.cls-9{fill:none;stroke-miterlimit:10;}.cls-1,.cls-7{stroke:#000;}.cls-1,.cls-10,.cls-11,.cls-9{stroke-width:2px;}.cls-2,.cls-3{font-size:8px;}.cls-2{font-family:ArialMT, Arial;}.cls-3{font-family:MyriadPro-Regular, Myriad Pro;}.cls-4{letter-spacing:-0.03em;}.cls-5{letter-spacing:0.03em;}.cls-6{letter-spacing:0em;}.cls-8{stroke:#999;stroke-dasharray:1.4;}.cls-9{stroke:red;}.cls-10{stroke:#7ac943;}.cls-11{stroke:blue;}</style></defs><title>Graph</title><line class="cls-1" x1="34.73" y1="4.39" x2="34.73" y2="376.39"/><line class="cls-1" x1="563.73" y1="375.39" x2="34.73" y2="375.39"/><text class="cls-2" transform="translate(39.11 388.9)">January</text><text class="cls-3" transform="translate(82.11 388.9)"><tspan class="cls-4">F</tspan><tspan x="3.65" y="0">ebrua</tspan><tspan class="cls-5" x="23.09" y="0">r</tspan><tspan class="cls-6" x="25.9" y="0">y</tspan></text><line class="cls-1" x1="51.73" y1="375.39" x2="51.73" y2="382.39"/><line class="cls-1" x1="97.73" y1="375.39" x2="97.73" y2="382.39"/><text class="cls-2" transform="translate(131.11 388.9)">March</text><line class="cls-1" x1="142.73" y1="375.39" x2="142.73" y2="382.39"/><text class="cls-2" transform="translate(178.11 388.9)">April</text><line class="cls-1" x1="187.73" y1="375.39" x2="187.73" y2="382.39"/><text class="cls-2" transform="translate(226.11 388.9)">May</text><text class="cls-2" transform="translate(270.11 388.9)">June</text><line class="cls-1" x1="233.73" y1="375.39" x2="233.73" y2="382.39"/><line class="cls-1" x1="279.73" y1="375.39" x2="279.73" y2="382.39"/><text class="cls-2" transform="translate(318.11 387.9)">July</text><line class="cls-1" x1="324.73" y1="375.39" x2="324.73" y2="382.39"/><text class="cls-2" transform="translate(358.11 387.9)">August</text><line class="cls-1" x1="369.73" y1="375.39" x2="369.73" y2="382.39"/><text class="cls-2" transform="translate(399.11 387.9)">September</text><text class="cls-2" transform="translate(447.11 387.9)">October</text><line class="cls-1" x1="416.73" y1="375.39" x2="416.73" y2="382.39"/><line class="cls-1" x1="461.73" y1="376.39" x2="461.73" y2="383.39"/><text class="cls-2" transform="translate(485.11 387.9)">November</text><line class="cls-1" x1="501.73" y1="375.39" x2="501.73" y2="382.39"/><text class="cls-2" transform="translate(529.11 387.9)">December</text><line class="cls-1" x1="546.73" y1="375.39" x2="546.73" y2="382.39"/><line class="cls-7" x1="26.73" y1="363.39" x2="34.73" y2="363.39"/><line class="cls-7" x1="26.73" y1="345.89" x2="34.73" y2="345.89"/><line class="cls-7" x1="26.73" y1="327.89" x2="34.73" y2="327.89"/><line class="cls-7" x1="26.73" y1="309.39" x2="34.73" y2="309.39"/><line class="cls-7" x1="26.73" y1="291.89" x2="34.73" y2="291.89"/><line class="cls-7" x1="26.73" y1="273.89" x2="34.73" y2="273.89"/><line class="cls-7" x1="26.73" y1="255.39" x2="34.73" y2="255.39"/><line class="cls-7" x1="26.73" y1="237.89" x2="34.73" y2="237.89"/><line class="cls-7" x1="26.73" y1="219.89" x2="34.73" y2="219.89"/><line class="cls-7" x1="26.73" y1="201.39" x2="34.73" y2="201.39"/><line class="cls-7" x1="26.73" y1="183.89" x2="34.73" y2="183.89"/><line class="cls-7" x1="26.73" y1="165.89" x2="34.73" y2="165.89"/><line class="cls-7" x1="26.73" y1="148.89" x2="34.73" y2="148.89"/><line class="cls-7" x1="26.73" y1="130.89" x2="34.73" y2="130.89"/><line class="cls-7" x1="26.73" y1="112.39" x2="34.73" y2="112.39"/><line class="cls-7" x1="26.73" y1="94.89" x2="34.73" y2="94.89"/><line class="cls-7" x1="26.73" y1="76.89" x2="34.73" y2="76.89"/><line class="cls-7" x1="26.73" y1="58.39" x2="34.73" y2="58.39"/><line class="cls-7" x1="26.73" y1="40.89" x2="34.73" y2="40.89"/><line class="cls-7" x1="26.73" y1="22.89" x2="34.73" y2="22.89"/><line class="cls-7" x1="26.73" y1="4.39" x2="34.73" y2="4.39"/><line class="cls-8" x1="37.73" y1="363.39" x2="550.12" y2="363.39"/><line class="cls-8" x1="37.73" y1="345.89" x2="550.12" y2="345.89"/><line class="cls-8" x1="37.73" y1="327.89" x2="550.12" y2="327.89"/><line class="cls-8" x1="37.73" y1="309.39" x2="550.12" y2="309.39"/><line class="cls-8" x1="37.73" y1="291.89" x2="550.12" y2="291.89"/><line class="cls-8" x1="37.73" y1="273.89" x2="550.12" y2="273.89"/><line class="cls-8" x1="37.73" y1="255.39" x2="550.12" y2="255.39"/><line class="cls-8" x1="37.73" y1="237.89" x2="550.12" y2="237.89"/><line class="cls-8" x1="37.73" y1="219.89" x2="550.12" y2="219.89"/><line class="cls-8" x1="37.73" y1="201.39" x2="550.12" y2="201.39"/><line class="cls-8" x1="37.73" y1="183.89" x2="550.12" y2="183.89"/><line class="cls-8" x1="37.73" y1="165.89" x2="550.12" y2="165.89"/><line class="cls-8" x1="37.73" y1="148.89" x2="550.12" y2="148.89"/><line class="cls-8" x1="37.73" y1="130.89" x2="550.12" y2="130.89"/><line class="cls-8" x1="37.73" y1="112.39" x2="550.12" y2="112.39"/><line class="cls-8" x1="37.73" y1="94.89" x2="550.12" y2="94.89"/><line class="cls-8" x1="37.73" y1="76.89" x2="550.12" y2="76.89"/><line class="cls-8" x1="37.73" y1="58.39" x2="550.12" y2="58.39"/><line class="cls-8" x1="37.73" y1="40.89" x2="550.12" y2="40.89"/><line class="cls-8" x1="37.73" y1="22.89" x2="550.12" y2="22.89"/><line class="cls-8" x1="37.73" y1="4.39" x2="550.12" y2="4.39"/><text class="cls-2" transform="translate(16 185.87)">£0</text><text class="cls-2" transform="translate(5 203.87)">-£500</text><text class="cls-2" transform="translate(0 221.87)">-£1000</text><text class="cls-2" transform="translate(0 239.87)">-£1500</text><text class="cls-2" transform="translate(0 257.87)">-£2000</text><text class="cls-2" transform="translate(0 276.87)">-£2500</text><text class="cls-2" transform="translate(0 293.87)">-£3000</text><text class="cls-2" transform="translate(0 311.87)">-£3500</text><text class="cls-2" transform="translate(0 329.87)">-£4000</text><text class="cls-2" transform="translate(0 347.87)">-£4500</text><text class="cls-2" transform="translate(0 364.87)">-£5000</text><text class="cls-2" transform="translate(4 6.87)">£5000</text><text class="cls-2" transform="translate(2 43.87)"><tspan xml:space="preserve"> £4000</tspan></text><text class="cls-2" transform="translate(2 25.87)"><tspan xml:space="preserve"> £4500</tspan></text><text class="cls-2" transform="translate(4 60.87)">£3500</text><text class="cls-2" transform="translate(4 79.87)">£3000</text><text class="cls-2" transform="translate(4 97.87)">£2500</text><text class="cls-2" transform="translate(4 114.87)">£2000</text><text class="cls-2" transform="translate(4 133.87)">£1500</text><text class="cls-2" transform="translate(4 151.87)">£1000</text><text class="cls-2" transform="translate(8 168.87)">£500</text><polyline class="cls-9" points="39.23 183.89 91.22 190.89 143.22 207.89 188.22 226.89 233.22 262.89 280.23 295.89 325.23 319.89 369.23 335.89 417.23 354.89 462.23 358.89 501.23 368.89 546.23 371.89"/><polyline class="cls-10" points="39.73 183.39 89.72 165.39 140.72 148.39 191.72 166.39 243.72 131.39 284.73 112.39 357.73 39.39 411.73 94.39 520.73 40.39 545.73 22.39"/><polyline class="cls-11" points="39.73 183.39 106.72 255.39 194.72 203.39 279.73 293.39 374.73 183.39 461.73 112.39 501.73 168.39 545.73 114.39"/></svg>